<?xml version="1.0" encoding="UTF-8"?><!DOCTYPE svg PUBLIC "-//W3C//DTD SVG 1.1//EN" "http://www.w3.org/Graphics/SVG/1.1/DTD/svg11.dtd"><svg xmlns="http://www.w3.org/2000/svg" xmlns:xlink="http://www.w3.org/1999/xlink"><symbol id="check" viewBox="0 0 13 10">
<path fill-rule="evenodd" clip-rule="evenodd" d="M11.9993 1.02216C12.3895 1.41273 12.3894 2.04567 11.999 2.43608L5.4682 8.96685C5.08962 9.34543 4.48003 9.35868 4.08537 8.9969L0.825891 6.00904C0.405327 5.62353 0.392011 4.96484 0.796652 4.56264C1.17554 4.18604 1.78354 4.17375 2.17734 4.53474L4.37812 6.55211C4.57545 6.733 4.88024 6.72638 5.06953 6.53709L10.5848 1.02187C10.9754 0.631232 11.6088 0.631362 11.9993 1.02216Z" fill="#64B851"/>
</symbol><symbol id="cross-red" viewBox="0 0 12 12">
<path fill-rule="evenodd" clip-rule="evenodd" d="M9.53556 1.05022C9.92608 0.659693 10.5592 0.659693 10.9498 1.05022C11.3403 1.44074 11.3403 2.07391 10.9498 2.46443L7.41424 5.99996L10.9498 9.5355C11.3403 9.92602 11.3403 10.5592 10.9498 10.9497C10.5592 11.3402 9.92608 11.3402 9.53556 10.9497L6.00003 7.41418L2.46449 10.9497C2.07397 11.3402 1.4408 11.3402 1.05028 10.9497C0.659754 10.5592 0.659754 9.92602 1.05028 9.5355L4.58581 5.99996L1.05028 2.46443C0.659754 2.07391 0.659754 1.44074 1.05028 1.05022C1.4408 0.659693 2.07397 0.659693 2.46449 1.05022L6.00003 4.58575L9.53556 1.05022Z" fill="#EB4B51"/>
</symbol><symbol id="cross" viewBox="0 0 14 14">
<path fill-rule="evenodd" clip-rule="evenodd" d="M1.7951 0.307991C1.38445 -0.102664 0.718644 -0.102664 0.30799 0.307991C-0.102664 0.718645 -0.102663 1.38445 0.307991 1.7951L5.51291 7.00002L0.30804 12.2049C-0.102614 12.6156 -0.102614 13.2814 0.30804 13.692C0.718694 14.1027 1.3845 14.1027 1.79515 13.692L7.00002 8.48714L12.2049 13.692C12.6155 14.1026 13.2813 14.1026 13.692 13.692C14.1026 13.2813 14.1026 12.6155 13.692 12.2049L8.48713 7.00002L13.692 1.79512C14.1027 1.38446 14.1027 0.71866 13.692 0.308005C13.2814 -0.102649 12.6156 -0.102649 12.2049 0.308005L7.00002 5.51291L1.7951 0.307991Z"/>
</symbol><symbol id="key" viewBox="0 0 13 13">
<path fill-rule="evenodd" clip-rule="evenodd" d="M7.68294 5.5634C7.88707 5.08313 8 4.55475 8 4C8 1.79086 6.20914 0 4 0C1.79086 0 0 1.79086 0 4C0 6.20914 1.79086 8 4 8C4.55379 8 5.0813 7.88746 5.5609 7.684L6.68825 8.81135C6.74736 8.87046 6.83209 8.89611 6.91406 8.87972L8.18262 8.62601C8.35763 8.59101 8.51189 8.74538 8.47676 8.92036L8.26977 9.95139C8.23466 10.1263 8.38877 10.2806 8.56373 10.2458L9.59747 10.0398C9.77232 10.005 9.92639 10.1591 9.89148 10.334L9.6379 11.6036C9.62153 11.6856 9.64719 11.7703 9.70628 11.8294L9.8474 11.9705C9.9239 12.047 10.0231 12.0966 10.1302 12.1119L11.1202 12.2533C11.7802 12.3476 12.3458 11.7819 12.2516 11.122L12.1101 10.132C12.0948 10.0249 12.0452 9.92568 11.9687 9.84918L7.68294 5.5634ZM3.5 5C4.32843 5 5 4.32843 5 3.5C5 2.67157 4.32843 2 3.5 2C2.67157 2 2 2.67157 2 3.5C2 4.32843 2.67157 5 3.5 5Z" fill="#383736"/>
</symbol></svg>